<?xml version="1.0" encoding="UTF-8"?>
<svg xmlns="http://www.w3.org/2000/svg" viewBox="0 0 800 500">
  <!-- Background gradient -->
  <defs>
    <linearGradient id="bgGradient" x1="0%" y1="0%" x2="100%" y2="100%">
      <stop offset="0%" stop-color="#1a1a2e" />
      <stop offset="100%" stop-color="#16213e" />
    </linearGradient>
    
    <!-- Glow filter -->
    <filter id="glow" x="-20%" y="-20%" width="140%" height="140%">
      <feGaussianBlur stdDeviation="5" result="blur" />
      <feComposite in="SourceGraphic" in2="blur" operator="over" />
    </filter>
    
    <!-- Terminal window style -->
    <linearGradient id="terminalGradient" x1="0%" y1="0%" x2="0%" y2="100%">
      <stop offset="0%" stop-color="#2a2a3a" />
      <stop offset="100%" stop-color="#1a1a2a" />
    </linearGradient>
    
    <!-- Progress bar gradient -->
    <linearGradient id="progressGradient" x1="0%" y1="0%" x2="100%" y2="0%">
      <stop offset="0%" stop-color="#3ec70b" />
      <stop offset="100%" stop-color="#4a88c7" />
    </linearGradient>
  </defs>
  
  <!-- Main background -->
  <rect width="800" height="500" fill="url(#bgGradient)" />
  
  <!-- Digital circuit pattern -->
  <g stroke="#4a88c7" stroke-width="1.5" opacity="0.15">
    <path d="M0,100 H800 M0,200 H800 M0,300 H800 M0,400 H800" />
    <path d="M100,0 V500 M200,0 V500 M300,0 V500 M400,0 V500 M500,0 V500 M600,0 V500 M700,0 V500" />
    
    <!-- Connection nodes -->
    <circle cx="100" cy="100" r="3" fill="#4a88c7" />
    <circle cx="300" cy="100" r="3" fill="#4a88c7" />
    <circle cx="500" cy="100" r="3" fill="#4a88c7" />
    <circle cx="700" cy="100" r="3" fill="#4a88c7" />
    
    <circle cx="200" cy="200" r="3" fill="#4a88c7" />
    <circle cx="400" cy="200" r="3" fill="#4a88c7" />
    <circle cx="600" cy="200" r="3" fill="#4a88c7" />
    
    <circle cx="100" cy="300" r="3" fill="#4a88c7" />
    <circle cx="300" cy="300" r="3" fill="#4a88c7" />
    <circle cx="500" cy="300" r="3" fill="#4a88c7" />
    <circle cx="700" cy="300" r="3" fill="#4a88c7" />
    
    <circle cx="200" cy="400" r="3" fill="#4a88c7" />
    <circle cx="400" cy="400" r="3" fill="#4a88c7" />
    <circle cx="600" cy="400" r="3" fill="#4a88c7" />
  </g>
  
  <!-- Main shield -->
  <g transform="translate(400, 250) scale(1.2)">
    <path d="M0,-120 L100,-75 L100,75 L0,120 L-100,75 L-100,-75 Z" fill="#0f3460" stroke="#4a88c7" stroke-width="3" />
    <path d="M0,-100 L85,-60 L85,60 L0,100 L-85,60 L-85,-60 Z" fill="#16213e" stroke="#4a88c7" stroke-width="1.5" />
    
    <!-- Lock symbol -->
    <rect x="-35" y="-15" width="70" height="60" rx="5" ry="5" fill="#e94560" />
    <rect x="-20" y="-40" width="40" height="35" rx="20" ry="20" fill="none" stroke="#e94560" stroke-width="12" />
    <circle cx="0" cy="15" r="10" fill="#16213e" />
    <rect x="-2" y="5" width="4" height="20" fill="#16213e" />
  </g>
  
  <!-- Terminal window - Moved DOWN -->
  <g transform="translate(580, 330)">
    <rect x="-140" y="-100" width="280" height="200" rx="5" ry="5" fill="url(#terminalGradient)" stroke="#4a88c7" stroke-width="2" />
    <rect x="-140" y="-100" width="280" height="25" rx="5" ry="5" fill="#4a88c7" />
    
    <!-- Terminal controls -->
    <circle cx="-120" cy="-87.5" r="5" fill="#e94560" />
    <circle cx="-105" cy="-87.5" r="5" fill="#ffbd39" />
    <circle cx="-90" cy="-87.5" r="5" fill="#3ec70b" />
    
    <!-- Terminal title -->
    <text x="0" y="-85" font-family="Arial, sans-serif" font-size="10" fill="#ffffff" text-anchor="middle">自动化升级过程</text>
    
    <!-- Terminal text - Updated to show automation and version upgrade -->
    <text x="-130" y="-60" font-family="monospace" font-size="10" fill="#3ec70b">
      <tspan x="-130" dy="0">$ sudo ./security-patcher.sh</tspan>
      <tspan x="-130" dy="15">[INFO] 检查系统信息...</tspan>
      <tspan x="-130" dy="15">[INFO] 操作系统: Ubuntu 22.04 LTS</tspan>
      <tspan x="-130" dy="15">[INFO] 当前 OpenSSH 版本: OpenSSH_8.8p1</tspan>
      <tspan x="-130" dy="15">[INFO] 开始自动下载源码...</tspan>
      <tspan x="-130" dy="15">[INFO] 自动选择最快的镜像源...</tspan>
      <tspan x="-130" dy="15">[INFO] 下载 OpenSSH-9.9p1.tar.gz</tspan>
      <tspan x="-130" dy="15">[INFO] 源码校验成功</tspan>
      <tspan x="-130" dy="15">[INFO] 备份配置到/root/backup_20250420</tspan>
      <tspan x="-130" dy="15">[INFO] 编译安装中...</tspan>
      <tspan x="-130" dy="15">[INFO] 应用安全配置修复...</tspan>
    </text>
    
    <!-- Progress bar -->
    <rect x="-130" y="75" width="260" height="15" rx="3" ry="3" fill="#242444" stroke="#3a3a5a" stroke-width="1" />
    <rect x="-130" y="75" width="195" height="15" rx="3" ry="3" fill="url(#progressGradient)">
      <animate attributeName="width" from="0" to="195" dur="5s" repeatCount="1" fill="freeze" />
    </rect>
    <text x="0" y="87" font-family="Arial, sans-serif" font-size="9" fill="#ffffff" text-anchor="middle">自动修复进度: 75%</text>
  </g>
  
  <!-- Version upgrade visualization - Moved to top right -->
  <g transform="translate(600, 120)">
    <rect x="-110" y="-30" width="220" height="60" rx="5" ry="5" fill="#2a2a3a" stroke="#4a88c7" stroke-width="1.5" />
    
    <!-- OpenSSH version upgrade arrow -->
    <text x="-85" y="-10" font-family="Arial, sans-serif" font-size="11" fill="#e94560" text-anchor="middle">OpenSSH_8.8p1</text>
    <text x="85" y="-10" font-family="Arial, sans-serif" font-size="11" fill="#3ec70b" text-anchor="middle">OpenSSH_9.9p1</text>
    
    <path d="M-40,-10 H40" stroke="#4a88c7" stroke-width="2" />
    <polygon points="40,-10 35,-15 35,-5" fill="#4a88c7" />
    
    <!-- Vulnerability status -->
    <text x="-85" y="15" font-family="Arial, sans-serif" font-size="10" fill="#e94560" text-anchor="middle">漏洞: 存在</text>
    <text x="85" y="15" font-family="Arial, sans-serif" font-size="10" fill="#3ec70b" text-anchor="middle">漏洞: 已修复</text>
    
    <path d="M-40,15 H40" stroke="#4a88c7" stroke-width="2" />
    <polygon points="40,15 35,10 35,20" fill="#4a88c7" />
  </g>
  
  <!-- Connection lines between shield and terminal - Adjusted for new position -->
  <g stroke="#4a88c7" stroke-width="2" fill="none">
    <path d="M450,200 C520,200 520,230 440,230" />
    <path d="M450,250 C530,250 560,250 440,250" />
    <path d="M450,300 C540,300 570,280 440,280" />
  </g>
  
  <!-- Data packets moving along connections - Adjusted -->
  <g filter="url(#glow)">
    <circle cx="470" cy="200" r="4" fill="#3ec70b">
      <animate attributeName="cx" from="450" to="440" dur="3s" repeatCount="indefinite" />
    </circle>
    <circle cx="490" cy="250" r="4" fill="#3ec70b">
      <animate attributeName="cx" from="450" to="440" dur="2s" repeatCount="indefinite" />
    </circle>
    <circle cx="510" cy="300" r="4" fill="#3ec70b">
      <animate attributeName="cx" from="450" to="440" dur="4s" repeatCount="indefinite" />
    </circle>
  </g>
  
  <!-- Vulnerability text boxes -->
  <g transform="translate(200, 130)">
    <rect x="-120" y="-45" width="240" height="90" rx="5" ry="5" fill="#1a1a2e" stroke="#e94560" stroke-width="2" opacity="0.9" />
    <text x="0" y="-20" font-family="Arial, sans-serif" font-size="14" fill="#ffffff" text-anchor="middle" font-weight="bold">CVE-2023-38408</text>
    <text x="0" y="0" font-family="Arial, sans-serif" font-size="11" fill="#ffffff" text-anchor="middle">OpenSSH 代理转发漏洞</text>
    <text x="0" y="20" font-family="Arial, sans-serif" font-size="11" fill="#ffffff" text-anchor="middle">远程代码执行风险</text>
  </g>
  
  <g transform="translate(200, 250)">
    <rect x="-120" y="-45" width="240" height="90" rx="5" ry="5" fill="#1a1a2e" stroke="#ffbd39" stroke-width="2" opacity="0.9" />
    <text x="0" y="-20" font-family="Arial, sans-serif" font-size="14" fill="#ffffff" text-anchor="middle" font-weight="bold">CVE-2023-48795</text>
    <text x="0" y="0" font-family="Arial, sans-serif" font-size="11" fill="#ffffff" text-anchor="middle">Terrapin 前缀截断攻击</text>
    <text x="0" y="20" font-family="Arial, sans-serif" font-size="11" fill="#ffffff" text-anchor="middle">SSH 协议安全漏洞</text>
  </g>
  
  <g transform="translate(200, 370)">
    <rect x="-120" y="-45" width="240" height="90" rx="5" ry="5" fill="#1a1a2e" stroke="#4a88c7" stroke-width="2" opacity="0.9" />
    <text x="0" y="-20" font-family="Arial, sans-serif" font-size="14" fill="#ffffff" text-anchor="middle" font-weight="bold">CVE-2023-51385</text>
    <text x="0" y="0" font-family="Arial, sans-serif" font-size="11" fill="#ffffff" text-anchor="middle">命令注入漏洞</text>
    <text x="0" y="20" font-family="Arial, sans-serif" font-size="11" fill="#ffffff" text-anchor="middle">Shell元字符安全缺陷</text>
  </g>
  
  <!-- Title text -->
  <text x="400" y="50" font-family="Arial, sans-serif" font-size="28" fill="#ffffff" text-anchor="middle" font-weight="bold">SecurityPatcher</text>
  <text x="400" y="80" font-family="Arial, sans-serif" font-size="16" fill="#4a88c7" text-anchor="middle">OpenSSH/OpenSSL 安全漏洞一键修复工具</text>
  
  <!-- Automation Indicator Icons - Moved to middle right -->
  <g transform="translate(600, 200)">
    <circle cx="-70" cy="0" r="20" fill="#1a1a2e" stroke="#3ec70b" stroke-width="1.5" />
    <text x="-70" y="5" font-family="Arial, sans-serif" font-size="22" fill="#3ec70b" text-anchor="middle">⚙️</text>
    <text x="-70" y="30" font-family="Arial, sans-serif" font-size="9" fill="#ffffff" text-anchor="middle">自动配置</text>
    
    <circle cx="0" cy="0" r="20" fill="#1a1a2e" stroke="#3ec70b" stroke-width="1.5" />
    <text x="0" y="5" font-family="Arial, sans-serif" font-size="22" fill="#3ec70b" text-anchor="middle">🔄</text>
    <text x="0" y="30" font-family="Arial, sans-serif" font-size="9" fill="#ffffff" text-anchor="middle">自动备份</text>
    
    <circle cx="70" cy="0" r="20" fill="#1a1a2e" stroke="#3ec70b" stroke-width="1.5" />
    <text x="70" y="5" font-family="Arial, sans-serif" font-size="22" fill="#3ec70b" text-anchor="middle">🔒</text>
    <text x="70" y="30" font-family="Arial, sans-serif" font-size="9" fill="#ffffff" text-anchor="middle">自动验证</text>
  </g>
  
  <!-- Decorative elements -->
  <g stroke="#e94560" stroke-width="1.5" opacity="0.3">
    <path d="M50,50 L150,50 M50,60 L150,60 M50,70 L120,70" />
    <path d="M650,450 L750,450 M650,460 L750,460 M680,470 L750,470" />
  </g>

  <!-- Animated scanning effect -->
  <rect width="800" height="4" fill="#4a88c7" opacity="0.3">
    <animate attributeName="y" from="0" to="500" dur="7s" repeatCount="indefinite" />
  </rect>
</svg>
